{
  "accessors": [
    {
      "bufferView": 3,
      "componentType": 5126,
      "count": 2170,
      "max": [
        16.488924026489258,
        10.903738021850586,
        19.10296630859375
      ],
      "min": [
        -16.488924026489258,
        -3.3335628509521484,
        -9.737555503845215
      ],
      "type": "VEC3"
    },
    {
      "bufferView": 3,
      "byteOffset": 26040,
      "componentType": 5126,
      "count": 2170,
      "max": [
        0.999808132648468,
        1.0,
        0.9992955923080444
      ],
      "min": [
        -0.999808132648468,
        -0.9999904632568359,
        -0.999093234539032
      ],
      "type": "VEC3"
    },
    {
      "bufferView": 2,
      "componentType": 5126,
      "count": 2170,
      "max": [
        0.9743595719337463,
        0.9597064256668091
      ],
      "min": [
        0.027207911014556885,
        0.05134519934654236
      ],
      "type": "VEC2"
    },
    {
      "bufferView": 1,
      "componentType": 5125,
      "count": 9072,
      "type": "SCALAR"
    },
    {
      "bufferView": 3,
      "byteOffset": 52080,
      "componentType": 5126,
      "count": 1667,
      "max": [
        20.228139877319336,
        125.29452514648438,
        14.998950958251953
      ],
      "min": [
        -20.090818405151367,
        83.7816390991211,
        -12.70954418182373
      ],
      "type": "VEC3"
    },
    {
      "bufferView": 3,
      "byteOffset": 72084,
      "componentType": 5126,
      "count": 1667,
      "max": [
        0.9997828006744385,
        0.9991488456726074,
        0.9999672174453735
      ],
      "min": [
        -0.9991554021835327,
        -0.9998930096626282,
        -0.999942421913147
      ],
      "type": "VEC3"
    },
    {
      "bufferView": 2,
      "byteOffset": 17360,
      "componentType": 5126,
      "count": 1667,
      "max": [
        0.7837885022163391,
        0.9921875
      ],
      "min": [
        0.0078125,
        0.017341168597340584
      ],
      "type": "VEC2"
    },
    {
      "bufferView": 1,
      "byteOffset": 36288,
      "componentType": 5125,
      "count": 6225,
      "type": "SCALAR"
    },
    {
      "bufferView": 3,
      "byteOffset": 92088,
      "componentType": 5126,
      "count": 24107,
      "max": [
        81.55062103271484,
        175.7996063232422,
        17.78483009338379
      ],
      "min": [
        -81.5447769165039,
        1.2875359058380127,
        -12.37860107421875
      ],
      "type": "VEC3"
    },
    {
      "bufferView": 3,
      "byteOffset": 381372,
      "componentType": 5126,
      "count": 24107,
      "max": [
        0.9999876618385315,
        0.9999750256538391,
        0.9999982714653015
      ],
      "min": [
        -0.999994695186615,
        -0.9999960660934448,
        -0.9999791383743286
      ],
      "type": "VEC3"
    },
    {
      "bufferView": 2,
      "byteOffset": 30696,
      "componentType": 5126,
      "count": 24107,
      "max": [
        0.9970703125,
        0.9650948643684387
      ],
      "min": [
        0.0029296875,
        0.0029773751739412546
      ],
      "type": "VEC2"
    },
    {
      "bufferView": 1,
      "byteOffset": 61188,
      "componentType": 5125,
      "count": 135132,
      "type": "SCALAR"
    },
    {
      "bufferView": 3,
      "byteOffset": 670656,
      "componentType": 5126,
      "count": 682,
      "max": [
        7.505720615386963,
        183.38526916503906,
        9.154136657714844
      ],
      "min": [
        -7.505716800689697,
        176.9032440185547,
        4.19460391998291
      ],
      "type": "VEC3"
    },
    {
      "bufferView": 3,
      "byteOffset": 678840,
      "componentType": 5126,
      "count": 682,
      "max": [
        0.9985930919647217,
        0.9991177320480347,
        0.9970809817314148
      ],
      "min": [
        -0.9985915422439575,
        -0.9991177916526794,
        -0.31653374433517456
      ],
      "type": "VEC3"
    },
    {
      "bufferView": 2,
      "byteOffset": 223552,
      "componentType": 5126,
      "count": 682,
      "max": [
        0.9958484172821045,
        0.3434836268424988
      ],
      "min": [
        0.47402989864349365,
        0.16672293841838837
      ],
      "type": "VEC2"
    },
    {
      "bufferView": 1,
      "byteOffset": 601716,
      "componentType": 5125,
      "count": 3960,
      "type": "SCALAR"
    },
    {
      "bufferView": 3,
      "byteOffset": 687024,
      "componentType": 5126,
      "count": 3970,
      "max": [
        16.506343841552734,
        170.7974395751953,
        18.056072235107422
      ],
      "min": [
        -16.510419845581055,
        120.80809783935547,
        -11.527212142944336
      ],
      "type": "VEC3"
    },
    {
      "bufferView": 3,
      "byteOffset": 734664,
      "componentType": 5126,
      "count": 3970,
      "max": [
        1.0,
        1.0,
        0.9997876882553101
      ],
      "min": [
        -1.0,
        -0.9999458193778992,
        -0.9999144077301025
      ],
      "type": "VEC3"
    },
    {
      "bufferView": 2,
      "byteOffset": 229008,
      "componentType": 5126,
      "count": 3970,
      "max": [
        0.9942325353622437,
        0.979030966758728
      ],
      "min": [
        0.0078125,
        0.0078125
      ],
      "type": "VEC2"
    },
    {
      "bufferView": 1,
      "byteOffset": 617556,
      "componentType": 5125,
      "count": 17790,
      "type": "SCALAR"
    },
    {
      "bufferView": 3,
      "byteOffset": 782304,
      "componentType": 5126,
      "count": 4547,
      "max": [
        12.522600173950195,
        196.31195068359375,
        11.525309562683105
      ],
      "min": [
        -12.522600173950195,
        167.91363525390625,
        -11.823545455932617
      ],
      "type": "VEC3"
    },
    {
      "bufferView": 3,
      "byteOffset": 836868,
      "componentType": 5126,
      "count": 4547,
      "max": [
        0.9999772310256958,
        0.9995508790016174,
        0.9999790191650391
      ],
      "min": [
        -0.9999772310256958,
        -0.999642550945282,
        -0.9999998807907104
      ],
      "type": "VEC3"
    },
    {
      "bufferView": 2,
      "byteOffset": 260768,
      "componentType": 5126,
      "count": 4547,
      "max": [
        0.8429890275001526,
        0.478193998336792
      ],
      "min": [
        0.19028599560260773,
        0.0029770000837743282
      ],
      "type": "VEC2"
    },
    {
      "bufferView": 3,
      "byteOffset": 891432,
      "componentType": 5126,
      "count": 4547,
      "max": [
        0.19280242919921875,
        0.8582305908203125,
        0.4180126190185547
      ],
      "min": [
        -0.19280242919921875,
        -0.873748779296875,
        -0.047808170318603516
      ],
      "type": "VEC3"
    },
    {
      "bufferView": 3,
      "byteOffset": 945996,
      "componentType": 5126,
      "count": 4547,
      "max": [
        1.1972370147705078,
        0.886797308921814,
        0.8646329641342163
      ],
      "min": [
        -1.197237253189087,
        -1.2450274229049683,
        -1.8662943840026855
      ],
      "type": "VEC3"
    },
    {
      "bufferView": 3,
      "byteOffset": 1000560,
      "componentType": 5126,
      "count": 4547,
      "max": [
        0.13971328735351563,
        0.4100799560546875,
        0.015346527099609375
      ],
      "min": [
        -0.13971328735351563,
        0.0,
        -0.0022420883178710938
      ],
      "type": "VEC3"
    },
    {
      "bufferView": 3,
      "byteOffset": 1055124,
      "componentType": 5126,
      "count": 4547,
      "max": [
        0.514214813709259,
        0.9914407730102539,
        0.884164571762085
      ],
      "min": [
        -0.5135070085525513,
        -1.103419542312622,
        -1.5528051853179932
      ],
      "type": "VEC3"
    },
    {
      "bufferView": 3,
      "byteOffset": 1109688,
      "componentType": 5126,
      "count": 4547,
      "max": [
        0.5659031867980957,
        1.069671630859375,
        0.04270744323730469
      ],
      "min": [
        -0.5669393539428711,
        0.0,
        -1.28025484085083
      ],
      "type": "VEC3"
    },
    {
      "bufferView": 3,
      "byteOffset": 1164252,
      "componentType": 5126,
      "count": 4547,
      "max": [
        0.6298712491989136,
        1.2780977487564087,
        0.884164571762085
      ],
      "min": [
        -0.6260031461715698,
        -1.103419542312622,
        -1.8134123086929321
      ],
      "type": "VEC3"
    },
    {
      "bufferView": 3,
      "byteOffset": 1218816,
      "componentType": 5126,
      "count": 4547,
      "max": [
        1.1190305948257446,
        0.3650054931640625,
        0.4745292663574219
      ],
      "min": [
        -1.1190305948257446,
        -0.4157867431640625,
        -0.19268417358398438
      ],
      "type": "VEC3"
    },
    {
      "bufferView": 3,
      "byteOffset": 1273380,
      "componentType": 5126,
      "count": 4547,
      "max": [
        0.25635674595832825,
        1.008164405822754,
        0.6929670572280884
      ],
      "min": [
        -0.25629574060440063,
        -0.6181294918060303,
        -1.4112061262130737
      ],
      "type": "VEC3"
    },
    {
      "bufferView": 3,
      "byteOffset": 1327944,
      "componentType": 5126,
      "count": 4547,
      "max": [
        0.0,
        0.0,
        0.0
      ],
      "min": [
        0.0,
        0.0,
        0.0
      ],
      "type": "VEC3"
    },
    {
      "bufferView": 3,
      "byteOffset": 1382508,
      "componentType": 5126,
      "count": 4547,
      "max": [
        0.2691211700439453,
        0.6321374177932739,
        0.6713400483131409
      ],
      "min": [
        -0.015752524137496948,
        -1.069273591041565,
        -0.005952298641204834
      ],
      "type": "VEC3"
    },
    {
      "bufferView": 1,
      "byteOffset": 688716,
      "componentType": 5125,
      "count": 24444,
      "type": "SCALAR"
    },
    {
      "bufferView": 3,
      "byteOffset": 1437072,
      "componentType": 5126,
      "count": 640,
      "max": [
        8.64941120147705,
        181.2627410888672,
        9.9917573928833
      ],
      "min": [
        -8.64941120147705,
        178.4277801513672,
        6.661810874938965
      ],
      "type": "VEC3"
    },
    {
      "bufferView": 3,
      "byteOffset": 1444752,
      "componentType": 5126,
      "count": 640,
      "max": [
        0.9991034865379333,
        0.9703699946403503,
        0.9976402521133423
      ],
      "min": [
        -0.9991034865379333,
        -0.999908983707428,
        -0.5488049983978271
      ],
      "type": "VEC3"
    },
    {
      "bufferView": 2,
      "byteOffset": 297144,
      "componentType": 5126,
      "count": 640,
      "max": [
        0.7870740294456482,
        0.46863800287246704
      ],
      "min": [
        0.2968910038471222,
        0.06812400370836258
      ],
      "type": "VEC2"
    },
    {
      "bufferView": 3,
      "byteOffset": 1452432,
      "componentType": 5126,
      "count": 640,
      "max": [
        0.46183061599731445,
        0.8308258056640625,
        0.5594720840454102
      ],
      "min": [
        -0.46183061599731445,
        -1.0668487548828125,
        -0.05179882049560547
      ],
      "type": "VEC3"
    },
    {
      "bufferView": 3,
      "byteOffset": 1460112,
      "componentType": 5126,
      "count": 640,
      "max": [
        1.1509625911712646,
        1.7434203624725342,
        1.1122167110443115
      ],
      "min": [
        -1.1509636640548706,
        -0.967858076095581,
        -0.6738283038139343
      ],
      "type": "VEC3"
    },
    {
      "bufferView": 1,
      "byteOffset": 786492,
      "componentType": 5125,
      "count": 1404,
      "type": "SCALAR"
    },
    {
      "bufferView": 3,
      "byteOffset": 1467792,
      "componentType": 5126,
      "count": 166,
      "max": [
        1.3136258125305176,
        173.5604705810547,
        9.776588439941406
      ],
      "min": [
        -1.3136258125305176,
        173.25909423828125,
        7.490390777587891
      ],
      "type": "VEC3"
    },
    {
      "bufferView": 3,
      "byteOffset": 1469784,
      "componentType": 5126,
      "count": 166,
      "max": [
        0.9951896071434021,
        1.0,
        1.0
      ],
      "min": [
        -0.9951896071434021,
        -1.0,
        -7.380918987109908e-08
      ],
      "type": "VEC3"
    },
    {
      "bufferView": 2,
      "byteOffset": 302264,
      "componentType": 5126,
      "count": 166,
      "max": [
        0.15378986299037933,
        0.9931577444076538
      ],
      "min": [
        0.004120886325836182,
        0.8916246891021729
      ],
      "type": "VEC2"
    },
    {
      "bufferView": 1,
      "byteOffset": 792108,
      "componentType": 5125,
      "count": 540,
      "type": "SCALAR"
    },
    {
      "bufferView": 3,
      "byteOffset": 1471776,
      "componentType": 5126,
      "count": 5580,
      "max": [
        13.430837631225586,
        197.37257385253906,
        15.302934646606445
      ],
      "min": [
        -12.955078125,
        167.5354766845703,
        -16.215789794921875
      ],
      "type": "VEC3"
    },
    {
      "bufferView": 3,
      "byteOffset": 1538736,
      "componentType": 5126,
      "count": 5580,
      "max": [
        0.9992712140083313,
        0.9996337890625,
        0.9981212615966797
      ],
      "min": [
        -0.9989811182022095,
        -1.0,
        -0.9992827773094177
      ],
      "type": "VEC3"
    },
    {
      "bufferView": 2,
      "byteOffset": 303592,
      "componentType": 5126,
      "count": 5580,
      "max": [
        0.9970579743385315,
        0.9908270239830017
      ],
      "min": [
        0.0029299999587237835,
        0.002939000027254224
      ],
      "type": "VEC2"
    },
    {
      "bufferView": 1,
      "byteOffset": 794268,
      "componentType": 5125,
      "count": 20286,
      "type": "SCALAR"
    },
    {
      "bufferView": 5,
      "componentType": 5126,
      "count": 93,
      "max": [
        1.0,
        0.9997310042381287,
        0.9557168483734131,
        0.0,
        0.6582033038139343,
        1.0,
        0.9985169768333435,
        0.0,
        0.9941920042037964,
        0.9998540282249451,
        1.0,
        0.0,
        183.028076171875,
        110.61752319335938,
        164.1118621826172,
        1.0
      ],
      "min": [
        -1.0,
        -0.9995480179786682,
        -0.9770111441612244,
        0.0,
        -0.9994945526123047,
        -0.9994159936904907,
        -0.9936019778251648,
        0.0,
        -0.9944779276847839,
        -0.8852519392967224,
        -0.9627947211265564,
        0.0,
        -115.81686401367188,
        -197.35658264160156,
        -137.14324951171875,
        1.0
      ],
      "type": "MAT4"
    },
    {
      "bufferView": 0,
      "componentType": 5123,
      "count": 2170,
      "type": "VEC4"
    },
    {
      "bufferView": 4,
      "componentType": 5126,
      "count": 2170,
      "max": [
        0.9808902740478516,
        0.4993968904018402,
        0.10464781522750854,
        0.0
      ],
      "min": [
        0.48689812421798706,
        0.016290511935949326,
        0.0,
        0.0
      ],
      "type": "VEC4"
    },
    {
      "bufferView": 0,
      "byteOffset": 17360,
      "componentType": 5123,
      "count": 1667,
      "type": "VEC4"
    },
    {
      "bufferView": 4,
      "byteOffset": 34720,
      "componentType": 5126,
      "count": 1667,
      "max": [
        1.0,
        0.4948505163192749,
        0.31456059217453003,
        0.0
      ],
      "min": [
        0.35603198409080505,
        0.0,
        0.0,
        0.0
      ],
      "type": "VEC4"
    },
    {
      "bufferView": 0,
      "byteOffset": 30696,
      "componentType": 5123,
      "count": 24107,
      "type": "VEC4"
    },
    {
      "bufferView": 4,
      "byteOffset": 61392,
      "componentType": 5126,
      "count": 24107,
      "max": [
        1.0,
        0.4999648630619049,
        0.3251052498817444,
        0.1981518417596817
      ],
      "min": [
        0.3062664270401001,
        0.0,
        0.0,
        0.0
      ],
      "type": "VEC4"
    },
    {
      "bufferView": 0,
      "byteOffset": 223552,
      "componentType": 5123,
      "count": 682,
      "type": "VEC4"
    },
    {
      "bufferView": 4,
      "byteOffset": 447104,
      "componentType": 5126,
      "count": 682,
      "max": [
        1.0,
        0.0769776999950409,
        0.0,
        0.0
      ],
      "min": [
        0.9230222702026367,
        0.0,
        0.0,
        0.0
      ],
      "type": "VEC4"
    },
    {
      "bufferView": 0,
      "byteOffset": 229008,
      "componentType": 5123,
      "count": 3970,
      "type": "VEC4"
    },
    {
      "bufferView": 4,
      "byteOffset": 458016,
      "componentType": 5126,
      "count": 3970,
      "max": [
        1.0,
        0.49869537353515625,
        0.31698814034461975,
        0.16188418865203857
      ],
      "min": [
        0.33306214213371277,
        0.0,
        0.0,
        0.0
      ],
      "type": "VEC4"
    },
    {
      "bufferView": 0,
      "byteOffset": 260768,
      "componentType": 5123,
      "count": 4547,
      "type": "VEC4"
    },
    {
      "bufferView": 4,
      "byteOffset": 521536,
      "componentType": 5126,
      "count": 4547,
      "max": [
        1.0,
        0.39544478058815,
        0.1263476461172104,
        0.0
      ],
      "min": [
        0.5073570013046265,
        0.0,
        0.0,
        0.0
      ],
      "type": "VEC4"
    },
    {
      "bufferView": 0,
      "byteOffset": 297144,
      "componentType": 5123,
      "count": 640,
      "type": "VEC4"
    },
    {
      "bufferView": 4,
      "byteOffset": 594288,
      "componentType": 5126,
      "count": 640,
      "max": [
        0.7319529056549072,
        0.2557950019836426,
        0.09133269637823105,
        0.040385808795690536
      ],
      "min": [
        0.6549155116081238,
        0.16260270774364471,
        0.04366755858063698,
        0.02719292789697647
      ],
      "type": "VEC4"
    },
    {
      "bufferView": 0,
      "byteOffset": 302264,
      "componentType": 5123,
      "count": 166,
      "type": "VEC4"
    },
    {
      "bufferView": 4,
      "byteOffset": 604528,
      "componentType": 5126,
      "count": 166,
      "max": [
        0.5304568409919739,
        0.4052237272262573,
        0.07270173728466034,
        0.05200744792819023
      ],
      "min": [
        0.4792309105396271,
        0.39187556505203247,
        0.04405956342816353,
        0.029167283326387405
      ],
      "type": "VEC4"
    },
    {
      "bufferView": 0,
      "byteOffset": 303592,
      "componentType": 5123,
      "count": 5580,
      "type": "VEC4"
    },
    {
      "bufferView": 4,
      "byteOffset": 607184,
      "componentType": 5126,
      "count": 5580,
      "max": [
        1.0,
        0.5,
        0.2999937832355499,
        0.24183794856071472
      ],
      "min": [
        0.2651672959327698,
        0.0,
        0.0,
        0.0
      ],
      "type": "VEC4"
    },
    {
      "bufferView": 6,
      "componentType": 5126,
      "count": 1,
      "max": [
        0.0
      ],
      "min": [
        0.0
      ],
      "type": "SCALAR"
    },
    {
      "bufferView": 6,
      "byteOffset": 4,
      "componentType": 5126,
      "count": 5,
      "max": [
        0.0
      ],
      "min": [
        0.0
      ],
      "type": "SCALAR"
    },
    {
      "bufferView": 6,
      "byteOffset": 24,
      "componentType": 5126,
      "count": 1,
      "max": [
        0.0
      ],
      "min": [
        0.0
      ],
      "type": "SCALAR"
    },
    {
      "bufferView": 6,
      "byteOffset": 28,
      "componentType": 5126,
      "count": 1,
      "max": [
        0.0
      ],
      "min": [
        0.0
      ],
      "type": "SCALAR"
    }
  ],
  "animations": [
    {
      "channels": [
        {
          "sampler": 0,
          "target": {
            "node": 17,
            "path": "weights"
          }
        },
        {
          "sampler": 1,
          "target": {
            "node": 19,
            "path": "weights"
          }
        }
      ],
      "name": "Take 001",
      "samplers": [
        {
          "input": 67,
          "interpolation": "LINEAR",
          "output": 68
        },
        {
          "input": 69,
          "interpolation": "LINEAR",
          "output": 70
        }
      ]
    }
  ],
  "asset": {
    "extras": {
      "author": "bolbi601 (https://sketchfab.com/bolbi601)",
      "license": "CC-BY-4.0 (http://creativecommons.org/licenses/by/4.0/)",
      "source": "https://sketchfab.com/3d-models/reze-stylized-anime-girl-f1d8f9a207554a5cba21e9e8516273f4",
      "title": "Reze – Stylized Anime Girl"
    },
    "generator": "Sketchfab-16.95.0",
    "version": "2.0"
  },
  "bufferViews": [
    {
      "buffer": 0,
      "byteLength": 348232,
      "byteStride": 8,
      "name": "shortBufferViews",
      "target": 34962
    },
    {
      "buffer": 0,
      "byteLength": 875412,
      "byteOffset": 348232,
      "name": "floatBufferViews",
      "target": 34963
    },
    {
      "buffer": 0,
      "byteLength": 348232,
      "byteOffset": 1223644,
      "byteStride": 8,
      "name": "floatBufferViews",
      "target": 34962
    },
    {
      "buffer": 0,
      "byteLength": 1605696,
      "byteOffset": 1571876,
      "byteStride": 12,
      "name": "floatBufferViews",
      "target": 34962
    },
    {
      "buffer": 0,
      "byteLength": 696464,
      "byteOffset": 3177572,
      "byteStride": 16,
      "name": "floatBufferViews",
      "target": 34962
    },
    {
      "buffer": 0,
      "byteLength": 5952,
      "byteOffset": 3874036,
      "name": "floatBufferViews"
    },
    {
      "buffer": 0,
      "byteLength": 32,
      "byteOffset": 3879988,
      "name": "floatBufferViews"
    }
  ],
  "buffers": [
    {
      "byteLength": 3880020,
      "uri": "scene.bin"
    }
  ],
  "extensionsUsed": [
    "KHR_materials_unlit"
  ],
  "images": [
    {
      "uri": "textures/Dress_baseColor.png"
    },
    {
      "uri": "textures/body1_baseColor.png"
    }
  ],
  "materials": [
    {
      "doubleSided": true,
      "extensions": {
        "KHR_materials_unlit": {}
      },
      "name": "Dress",
      "pbrMetallicRoughness": {
        "baseColorTexture": {
          "index": 0
        },
        "metallicFactor": 0.0
      }
    },
    {
      "doubleSided": true,
      "extensions": {
        "KHR_materials_unlit": {}
      },
      "name": "body1",
      "pbrMetallicRoughness": {
        "baseColorTexture": {
          "index": 1
        },
        "metallicFactor": 0.0
      }
    },
    {
      "doubleSided": true,
      "extensions": {
        "KHR_materials_unlit": {}
      },
      "name": "body2SG2",
      "pbrMetallicRoughness": {
        "baseColorTexture": {
          "index": 1
        },
        "metallicFactor": 0.0
      }
    },
    {
      "doubleSided": true,
      "extensions": {
        "KHR_materials_unlit": {}
      },
      "name": "body2SG4",
      "pbrMetallicRoughness": {
        "baseColorTexture": {
          "index": 1
        },
        "metallicFactor": 0.0
      }
    }
  ],
  "meshes": [
    {
      "name": "shoes_Dress_0",
      "primitives": [
        {
          "attributes": {
            "JOINTS_0": 49,
            "NORMAL": 1,
            "POSITION": 0,
            "TEXCOORD_0": 2,
            "WEIGHTS_0": 50
          },
          "indices": 3,
          "material": 0,
          "mode": 4
        }
      ]
    },
    {
      "name": "bot_Dress_0",
      "primitives": [
        {
          "attributes": {
            "JOINTS_0": 51,
            "NORMAL": 5,
            "POSITION": 4,
            "TEXCOORD_0": 6,
            "WEIGHTS_0": 52
          },
          "indices": 7,
          "material": 0,
          "mode": 4
        }
      ]
    },
    {
      "name": "body2_body1_0",
      "primitives": [
        {
          "attributes": {
            "JOINTS_0": 53,
            "NORMAL": 9,
            "POSITION": 8,
            "TEXCOORD_0": 10,
            "WEIGHTS_0": 54
          },
          "indices": 11,
          "material": 1,
          "mode": 4
        }
      ]
    },
    {
      "name": "r_eye_body1_0",
      "primitives": [
        {
          "attributes": {
            "JOINTS_0": 55,
            "NORMAL": 13,
            "POSITION": 12,
            "TEXCOORD_0": 14,
            "WEIGHTS_0": 56
          },
          "indices": 15,
          "material": 1,
          "mode": 4
        }
      ]
    },
    {
      "name": "top2_Dress_0",
      "primitives": [
        {
          "attributes": {
            "JOINTS_0": 57,
            "NORMAL": 17,
            "POSITION": 16,
            "TEXCOORD_0": 18,
            "WEIGHTS_0": 58
          },
          "indices": 19,
          "material": 0,
          "mode": 4
        }
      ]
    },
    {
      "name": "0",
      "primitives": [
        {
          "attributes": {
            "JOINTS_0": 59,
            "NORMAL": 21,
            "POSITION": 20,
            "TEXCOORD_0": 22,
            "WEIGHTS_0": 60
          },
          "indices": 33,
          "material": 2,
          "mode": 4,
          "targets": [
            {
              "NORMAL": 24,
              "POSITION": 23
            },
            {
              "NORMAL": 26,
              "POSITION": 25
            },
            {
              "NORMAL": 28,
              "POSITION": 27
            },
            {
              "NORMAL": 30,
              "POSITION": 29
            },
            {
              "NORMAL": 32,
              "POSITION": 31
            }
          ]
        }
      ],
      "weights": [
        0.0,
        0.0,
        0.0,
        0.0,
        0.0
      ]
    },
    {
      "name": "1",
      "primitives": [
        {
          "attributes": {
            "JOINTS_0": 61,
            "NORMAL": 35,
            "POSITION": 34,
            "TEXCOORD_0": 36,
            "WEIGHTS_0": 62
          },
          "indices": 39,
          "material": 2,
          "mode": 4,
          "targets": [
            {
              "NORMAL": 38,
              "POSITION": 37
            }
          ]
        }
      ],
      "weights": [
        0.0
      ]
    },
    {
      "name": "language__body2SG2_0",
      "primitives": [
        {
          "attributes": {
            "JOINTS_0": 63,
            "NORMAL": 41,
            "POSITION": 40,
            "TEXCOORD_0": 42,
            "WEIGHTS_0": 64
          },
          "indices": 43,
          "material": 2,
          "mode": 4
        }
      ]
    },
    {
      "name": "_hair1__body2SG4_0",
      "primitives": [
        {
          "attributes": {
            "JOINTS_0": 65,
            "NORMAL": 45,
            "POSITION": 44,
            "TEXCOORD_0": 46,
            "WEIGHTS_0": 66
          },
          "indices": 47,
          "material": 3,
          "mode": 4
        }
      ]
    }
  ],
  "nodes": [
    {
      "children": [
        1
      ],
      "matrix": [
        1.0,
        0.0,
        0.0,
        0.0,
        0.0,
        2.220446049250313e-16,
        -1.0,
        0.0,
        0.0,
        1.0,
        2.220446049250313e-16,
        0.0,
        0.0,
        0.0,
        0.0,
        1.0
      ],
      "name": "Sketchfab_model"
    },
    {
      "children": [
        2
      ],
      "matrix": [
        0.009999999776482582,
        0.0,
        0.0,
        0.0,
        0.0,
        0.0,
        0.009999999776482582,
        0.0,
        0.0,
        -0.009999999776482582,
        0.0,
        0.0,
        0.0,
        0.0,
        0.0,
        1.0
      ],
      "name": "ceb756a3e4234327959e163b7594c706.fbx"
    },
    {
      "children": [
        3
      ],
      "name": "Object_2"
    },
    {
      "children": [
        4
      ],
      "name": "RootNode"
    },
    {
      "children": [
        5,
        7,
        9,
        11,
        13,
        15,
        17,
        19,
        21,
        22,
        6,
        8,
        10,
        12,
        14,
        16,
        18,
        20,
        115,
        116,
        117,
        118,
        119,
        120,
        121,
        122,
        123,
        124
      ],
      "name": "Object_4"
    },
    {
      "children": [
        23
      ],
      "name": "_rootJoint"
    },
    {
      "matrix": [
        0.9999999999999999,
        1.734723475976807e-18,
        -2.6020852139652106e-18,
        0.0,
        -1.734723475976807e-18,
        0.9999999999999998,
        0.0,
        0.0,
        2.6020852139652103e-18,
        4.513898307157585e-36,
        0.9999999999999998,
        0.0,
        0.0,
        0.0,
        -1.3322676295501878e-15,
        1.0
      ],
      "name": "Object_6"
    },
    {
      "mesh": 0,
      "name": "Object_7",
      "skin": 0
    },
    {
      "matrix": [
        1.0,
        0.0,
        0.0,
        0.0,
        0.0,
        0.9999999999999999,
        0.0,
        0.0,
        0.0,
        0.0,
        0.9999999999999999,
        0.0,
        0.0,
        0.0,
        -8.881784197001252e-16,
        1.0
      ],
      "name": "Object_8"
    },
    {
      "mesh": 1,
      "name": "Object_9",
      "skin": 0
    },
    {
      "matrix": [
        1.0,
        6.505213034913027e-19,
        1.6263032587282567e-18,
        0.0,
        -6.505213034913026e-19,
        0.9999999999999999,
        1.3877787807814457e-17,
        0.0,
        -1.6263032587282565e-18,
        -1.3877787807814457e-17,
        0.9999999999999999,
        0.0,
        3.552713678800501e-15,
        0.0,
        3.1086244689504383e-15,
        1.0
      ],
      "name": "Object_10"
    },
    {
      "mesh": 2,
      "name": "Object_11",
      "skin": 0
    },
    {
      "matrix": [
        3.122558000000001,
        -0.09997170000000002,
        -0.8735159999999998,
        0.0,
        0.8704105654476164,
        -0.10355702354192325,
        3.123308841639312,
        0.0,
        -0.12413813842621756,
        -3.24078499478064,
        -0.07285699630594215,
        0.0,
        5.293399,
        180.112369,
        5.951034,
        1.0
      ],
      "name": "Object_12"
    },
    {
      "mesh": 3,
      "name": "Object_13",
      "skin": 0
    },
    {
      "matrix": [
        1.0,
        0.0,
        0.0,
        0.0,
        0.0,
        0.9999999999999999,
        0.0,
        0.0,
        0.0,
        0.0,
        0.9999999999999999,
        0.0,
        0.0,
        0.0,
        0.0,
        1.0
      ],
      "name": "Object_14"
    },
    {
      "mesh": 4,
      "name": "Object_15",
      "skin": 0
    },
    {
      "matrix": [
        1.0,
        0.0,
        0.0,
        0.0,
        0.0,
        1.0000000000000002,
        1.3877787807814457e-17,
        0.0,
        0.0,
        -1.3877787807814457e-17,
        1.0000000000000002,
        0.0,
        0.0,
        0.0,
        -3.1086244689504383e-15,
        1.0
      ],
      "name": "Object_16"
    },
    {
      "mesh": 5,
      "name": "Object_17",
      "skin": 0
    },
    {
      "matrix": [
        1.0,
        0.0,
        0.0,
        0.0,
        0.0,
        1.0000000000000002,
        1.3877787807814457e-17,
        0.0,
        0.0,
        -1.3877787807814457e-17,
        1.0000000000000002,
        0.0,
        0.0,
        0.0,
        -3.1086244689504383e-15,
        1.0
      ],
      "name": "Object_18"
    },
    {
      "mesh": 6,
      "name": "Object_19",
      "skin": 0
    },
    {
      "matrix": [
        1.0,
        0.0,
        0.0,
        0.0,
        0.0,
        1.0000000000000002,
        1.3877787807814457e-17,
        0.0,
        0.0,
        -1.3877787807814457e-17,
        1.0000000000000002,
        0.0,
        0.0,
        0.0,
        -3.1086244689504383e-15,
        1.0
      ],
      "name": "Object_20"
    },
    {
      "mesh": 7,
      "name": "Object_21",
      "skin": 0
    },
    {
      "mesh": 8,
      "name": "Object_22",
      "skin": 0
    },
    {
      "children": [
        24,
        107,
        111
      ],
      "name": "mixamorig:Hips_01",
      "translation": [
        0.0,
        115.69412231445313,
        1.4593669176101685
      ]
    },
    {
      "children": [
        25
      ],
      "name": "mixamorig:Spine_02",
      "rotation": [
        -0.05163920298218727,
        -0.0,
        0.0,
        0.9986658096313477
      ],
      "translation": [
        0.0,
        8.965133666992188,
        -0.9296284317970276
      ]
    },
    {
      "children": [
        26
      ],
      "name": "mixamorig:Spine1_03",
      "rotation": [
        -1.0682565942943256e-07,
        -0.0,
        0.0,
        1.0
      ],
      "translation": [
        0.0,
        10.515416145324707,
        -2.7301023663994783e-09
      ]
    },
    {
      "children": [
        27,
        62,
        83,
        104,
        105,
        106
      ],
      "name": "mixamorig:Spine2_04",
      "rotation": [
        -6.938893903907228e-18,
        -0.0,
        0.0,
        1.0
      ],
      "translation": [
        0.0,
        12.017599105834961,
        9.211214546667179e-08
      ]
    },
    {
      "children": [
        28,
        58,
        59,
        60,
        61
      ],
      "name": "mixamorig:Neck_05",
      "rotation": [
        0.051639311015605927,
        0.0,
        0.0,
        0.9986658096313477
      ],
      "translation": [
        0.0,
        13.51981258392334,
        2.036518026216072e-06
      ]
    },
    {
      "children": [
        29,
        54,
        55,
        56,
        57
      ],
      "name": "mixamorig:Head_06",
      "rotation": [
        6.938893903907228e-18,
        0.0,
        0.0,
        1.0
      ],
      "translation": [
        0.0,
        10.560256958007813,
        1.2677364349365234
      ]
    },
    {
      "children": [
        30,
        34,
        38,
        43,
        51
      ],
      "name": "mixamorig:HeadTop_End_07",
      "rotation": [
        6.938893903907228e-18,
        0.0,
        0.0,
        1.0
      ],
      "translation": [
        0.0,
        26.276519775390625,
        3.1544408798217773
      ]
    },
    {
      "children": [
        31
      ],
      "name": "joint1_08",
      "rotation": [
        -0.6041565537452698,
        0.7851066589355469,
        -0.13528816401958466,
        -0.017313277348876
      ],
      "translation": [
        -0.7150421142578125,
        -10.43342113494873,
        12.498556137084961
      ]
    },
    {
      "children": [
        32
      ],
      "name": "joint2_09",
      "rotation": [
        -2.7688301430000282e-18,
        -0.2323787361383438,
        -4.893535917601484e-16,
        0.9726254940032959
      ],
      "translation": [
        7.642653465270996,
        7.105427357601002e-15,
        0.0
      ]
    },
    {
      "children": [
        33
      ],
      "name": "joint3_010",
      "rotation": [
        0.12529581785202026,
        -0.1093103438615799,
        -0.013890858739614487,
        0.9859814643859863
      ],
      "translation": [
        4.8897480964660645,
        7.105427357601002e-15,
        -2.842170943040401e-14
      ]
    },
    {
      "name": "joint4_011",
      "rotation": [
        2.7755575615628914e-17,
        -2.7755575615628914e-17,
        7.703719777548943e-34,
        1.0
      ],
      "translation": [
        6.276993274688721,
        7.105427357601002e-15,
        7.105427357601002e-15
      ]
    },
    {
      "children": [
        35
      ],
      "name": "joint5_012",
      "rotation": [
        -0.20997996628284454,
        0.2507539689540863,
        -0.5554136633872986,
        0.7645564079284668
      ],
      "translation": [
        9.481210708618164,
        -9.407716751098633,
        6.43625545501709
      ]
    },
    {
      "children": [
        36
      ],
      "name": "joint6_013",
      "rotation": [
        3.0613173612089304e-17,
        0.2103179693222046,
        1.4413341329374933e-15,
        0.9776330590248108
      ],
      "translation": [
        6.232781410217285,
        7.105427357601002e-15,
        0.0
      ]
    },
    {
      "children": [
        37
      ],
      "name": "joint7_014",
      "rotation": [
        -0.36434003710746765,
        0.12386316061019897,
        -0.04896243289113045,
        0.9216925501823425
      ],
      "translation": [
        4.804242134094238,
        -7.105427357601002e-15,
        -7.105427357601002e-15
      ]
    },
    {
      "name": "joint8_015",
      "rotation": [
        -1.0408340855860843e-17,
        -1.214306433183765e-17,
        5.551115123125783e-17,
        1.0
      ],
      "translation": [
        9.536539077758789,
        0.0,
        7.105427357601002e-15
      ]
    },
    {
      "children": [
        39
      ],
      "name": "joint9_016",
      "rotation": [
        0.16028274595737457,
        -0.346889853477478,
        -0.6986179947853088,
        0.6049047708511353
      ],
      "translation": [
        -7.799167633056641,
        -8.245232582092285,
        9.536707878112793
      ]
    },
    {
      "children": [
        40
      ],
      "name": "joint10_017",
      "rotation": [
        8.750745354559705e-18,
        0.15491428971290588,
        -5.580573340844511e-17,
        0.9879279136657715
      ],
      "translation": [
        6.55626916885376,
        0.0,
        0.0
      ]
    },
    {
      "children": [
        41
      ],
      "name": "joint11_018",
      "rotation": [
        0.5382326245307922,
        0.04589231312274933,
        0.029369516298174858,
        0.8410332798957825
      ],
      "translation": [
        5.002843379974365,
        -1.7763568394002505e-15,
        8.881784197001252e-15
      ]
    },
    {
      "children": [
        42
      ],
      "name": "joint12_019",
      "rotation": [
        -0.2715188264846802,
        0.2407722771167755,
        -0.07035767287015915,
        0.9291695356369019
      ],
      "translation": [
        3.5029428005218506,
        7.105427357601002e-15,
        -8.881784197001252e-15
      ]
    },
    {
      "name": "joint13_020",
      "rotation": [
        -2.7755575615628914e-17,
        -2.6020852139652106e-17,
        1.3877787807814457e-17,
        1.0
      ],
      "translation": [
        7.628274917602539,
        5.3290705182007514e-15,
        2.842170943040401e-14
      ]
    },
    {
      "children": [
        44
      ],
      "name": "joint14_021",
      "rotation": [
        -0.3345722556114197,
        0.5576754212379456,
        0.5893009901046753,
        -0.4793577790260315
      ],
      "translation": [
        -9.512325286865234,
        -4.45719051361084,
        0.7761926054954529
      ]
    },
    {
      "children": [
        45
      ],
      "name": "joint15_022",
      "rotation": [
        -2.625598319185398e-17,
        0.11646337062120438,
        1.0580307602394779e-15,
        0.9931949973106384
      ],
      "translation": [
        7.231924057006836,
        -2.1645045280456543,
        -0.6181437969207764
      ]
    },
    {
      "children": [
        46,
        48
      ],
      "name": "joint16_023",
      "rotation": [
        0.4306289851665497,
        0.30440521240234375,
        0.15698587894439697,
        0.8350158929824829
      ],
      "translation": [
        4.5478973388671875,
        -0.47481784224510193,
        -0.029806291684508324
      ]
    },
    {
      "children": [
        47
      ],
      "name": "joint17_024",
      "rotation": [
        0.9233441948890686,
        -0.059601493179798126,
        0.1600184440612793,
        -0.343914657831192
      ],
      "translation": [
        6.361917018890381,
        2.244746685028076,
        0.30286064743995667
      ]
    },
    {
      "name": "joint18_025",
      "rotation": [
        1.3877787807814457e-17,
        1.3877787807814457e-17,
        -1.3877787807814457e-17,
        1.0
      ],
      "translation": [
        9.633289337158203,
        -0.6413801312446594,
        0.1921134889125824
      ]
    },
    {
      "children": [
        49
      ],
      "name": "joint19_026",
      "rotation": [
        0.9370584487915039,
        -0.01799219846725464,
        0.231585294008255,
        -0.2607029378414154
      ],
      "translation": [
        0.1915564239025116,
        -2.65537428855896,
        3.8545641899108887
      ]
    },
    {
      "children": [
        50
      ],
      "name": "joint20_027",
      "rotation": [
        -2.6754878980341862e-17,
        -0.35884514451026917,
        -4.56327194811552e-16,
        0.933397114276886
      ],
      "translation": [
        5.77714729309082,
        3.552713678800501e-15,
        -3.552713678800501e-15
      ]
    },
    {
      "name": "joint21_028",
      "rotation": [
        -1.5407439555097887e-33,
        5.551115123125783e-17,
        2.7755575615628914e-17,
        1.0
      ],
      "translation": [
        6.904150009155273,
        -3.552713678800501e-15,
        -2.842170943040401e-14
      ]
    },
    {
      "children": [
        52
      ],
      "name": "joint22_029",
      "rotation": [
        -0.11544381827116013,
        0.038999900221824646,
        -0.6172327995300293,
        0.7772872447967529
      ],
      "translation": [
        1.3506542444229126,
        -15.386213302612305,
        -12.815662384033203
      ]
    },
    {
      "children": [
        53
      ],
      "name": "joint23_030",
      "rotation": [
        -1.1058300503716222e-17,
        0.301499605178833,
        -1.1058300503716222e-17,
        0.9534664154052734
      ],
      "translation": [
        5.405696392059326,
        -2.482689380645752,
        -0.5305806994438171
      ]
    },
    {
      "name": "joint24_031",
      "rotation": [
        -2.7755575615628914e-17,
        -1.925929944387236e-34,
        6.938893903907228e-18,
        1.0
      ],
      "translation": [
        8.99901294708252,
        -7.105427357601002e-15,
        2.842170943040401e-14
      ]
    },
    {
      "name": "mixamorig:Head_06_0"
    },
    {
      "name": "mixamorig:Head_06_1"
    },
    {
      "name": "mixamorig:Head_06_2"
    },
    {
      "name": "mixamorig:Head_06_3"
    },
    {
      "name": "mixamorig:Neck_05_0"
    },
    {
      "name": "mixamorig:Neck_05_1"
    },
    {
      "name": "mixamorig:Neck_05_2"
    },
    {
      "name": "mixamorig:Neck_05_3"
    },
    {
      "children": [
        63,
        81,
        82
      ],
      "name": "mixamorig:LeftShoulder_032",
      "rotation": [
        -0.5485121607780457,
        -0.44380784034729004,
        0.5586576461791992,
        -0.43597090244293213
      ],
      "translation": [
        5.473889350891113,
        12.215912818908691,
        -0.10228573530912399
      ]
    },
    {
      "children": [
        64
      ],
      "name": "mixamorig:LeftArm_033",
      "rotation": [
        -0.11437948048114777,
        -0.002422770019620657,
        0.021038062870502472,
        0.9932113885879517
      ],
      "translation": [
        -1.0212016121613487e-08,
        11.303067207336426,
        -1.0073566159007896e-07
      ]
    },
    {
      "children": [
        65
      ],
      "name": "mixamorig:LeftForeArm_034",
      "rotation": [
        -0.03598667308688164,
        -0.005666827782988548,
        0.15545006096363068,
        0.9871717691421509
      ],
      "translation": [
        -8.626793501775865e-09,
        21.970447540283203,
        -1.5867840374994557e-10
      ]
    },
    {
      "children": [
        66,
        69,
        72,
        75,
        78
      ],
      "name": "mixamorig:LeftHand_035",
      "rotation": [
        0.007332110311836004,
        -0.29979318380355835,
        -0.046052224934101105,
        0.9528638124465942
      ],
      "translation": [
        6.070582969641691e-08,
        25.199308395385742,
        -1.6267904356936924e-08
      ]
    },
    {
      "children": [
        67
      ],
      "name": "mixamorig:LeftHandThumb1_036",
      "rotation": [
        0.1651005744934082,
        0.043742790818214417,
        0.25234663486480713,
        0.9524440169334412
      ],
      "translation": [
        -2.2983601093292236,
        3.9617090225219727,
        1.6370059251785278
      ]
    },
    {
      "children": [
        68
      ],
      "name": "mixamorig:LeftHandThumb2_037",
      "rotation": [
        0.09246878325939178,
        -1.6300432115201602e-09,
        5.976660277795531e-10,
        0.9957156777381897
      ],
      "translation": [
        -0.02820655144751072,
        3.891005516052246,
        -3.551298277670867e-08
      ]
    },
    {
      "name": "mixamorig:LeftHandThumb3_038",
      "rotation": [
        -0.02511543780565262,
        -1.5860309732218525e-09,
        7.062223028597714e-10,
        0.9996845722198486
      ],
      "translation": [
        -0.04535900801420212,
        3.6817667484283447,
        -5.662781177306897e-08
      ]
    },
    {
      "children": [
        70
      ],
      "name": "mixamorig:LeftHandIndex1_039",
      "rotation": [
        0.14170803129673004,
        0.008060879074037075,
        0.05621710792183876,
        0.9882781505584717
      ],
      "translation": [
        -3.1220216751098633,
        11.168615341186523,
        0.01388875488191843
      ]
    },
    {
      "children": [
        71
      ],
      "name": "mixamorig:LeftHandIndex2_040",
      "rotation": [
        -0.07156696915626526,
        -1.9436847686904457e-09,
        2.7098134847136635e-10,
        0.9974358081817627
      ],
      "translation": [
        0.0031861234456300735,
        3.081752300262451,
        -1.0458902011123428e-07
      ]
    },
    {
      "name": "mixamorig:LeftHandIndex3_041",
      "rotation": [
        -0.018574990332126617,
        -1.960193118932807e-09,
        9.478870466317346e-11,
        0.9998275637626648
      ],
      "translation": [
        -0.0012134105199947953,
        2.6986916065216064,
        3.594018949115707e-08
      ]
    },
    {
      "children": [
        73
      ],
      "name": "mixamorig:LeftHandMiddle1_042",
      "rotation": [
        0.04325738921761513,
        -0.0011025101412087679,
        -0.02545500360429287,
        0.9987390041351318
      ],
      "translation": [
        -1.1075276136398315,
        11.726452827453613,
        -0.4103858768939972
      ]
    },
    {
      "children": [
        74
      ],
      "name": "mixamorig:LeftHandMiddle2_043",
      "rotation": [
        -0.00894554890692234,
        -2.947388999530176e-09,
        8.23763834922886e-11,
        0.9999600052833557
      ],
      "translation": [
        0.0034840721637010574,
        3.1838107109069824,
        8.022226438697544e-09
      ]
    },
    {
      "name": "mixamorig:LeftHandMiddle3_00",
      "rotation": [
        -0.06247526779770851,
        -2.945748311944385e-09,
        -1.2827995610198428e-10,
        0.9980465173721313
      ],
      "translation": [
        0.0019954033195972443,
        2.9214158058166504,
        -2.777341023829649e-09
      ]
    },
    {
      "children": [
        76
      ],
      "name": "mixamorig:LeftHandRing1_044",
      "rotation": [
        0.10683735460042953,
        -0.014682871289551258,
        -0.13535816967487335,
        0.9849104285240173
      ],
      "translation": [
        1.0163438320159912,
        11.136151313781738,
        -0.3781208395957947
      ]
    },
    {
      "children": [
        77
      ],
      "name": "mixamorig:LeftHandRing2_045",
      "rotation": [
        -0.03163620084524155,
        -5.025682980885904e-09,
        7.887490660607455e-10,
        0.9994995594024658
      ],
      "translation": [
        0.004126387648284435,
        2.9446091651916504,
        9.770059250513441e-08
      ]
    },
    {
      "name": "mixamorig:LeftHandRing3_046",
      "rotation": [
        0.039593037217855453,
        -5.019243687343078e-09,
        8.287376340732067e-10,
        0.9992159008979797
      ],
      "translation": [
        -0.005035278853029013,
        2.765446901321411,
        1.2879013411293272e-09
      ]
    },
    {
      "children": [
        79
      ],
      "name": "mixamorig:LeftHandPinky1_047",
      "rotation": [
        0.10796356201171875,
        -0.018176022917032242,
        -0.1650191992521286,
        0.9801949858665466
      ],
      "translation": [
        3.213205337524414,
        9.88117504119873,
        0.009234204888343811
      ]
    },
    {
      "children": [
        80
      ],
      "name": "mixamorig:LeftHandPinky2_048",
      "rotation": [
        -0.05558278039097786,
        -1.8398828016685798e-09,
        1.55669005463821e-10,
        0.9984540939331055
      ],
      "translation": [
        0.007109109312295914,
        2.6536831855773926,
        -4.164425604358257e-08
      ]
    },
    {
      "name": "mixamorig:LeftHandPinky3_049",
      "rotation": [
        0.011070922948420048,
        -1.8449893834926456e-09,
        7.359277770513373e-11,
        0.9999387264251709
      ],
      "translation": [
        -0.0036534445825964212,
        2.1893014907836914,
        1.4858045460641733e-08
      ]
    },
    {
      "name": "mixamorig:LeftShoulder_032_0"
    },
    {
      "name": "mixamorig:LeftShoulder_032_1"
    },
    {
      "children": [
        84,
        102,
        103
      ],
      "name": "mixamorig:RightShoulder_050",
      "rotation": [
        0.5449255704879761,
        -0.44671669602394104,
        0.5616247653961182,
        0.43367958068847656
      ],
      "translation": [
        -5.473889350891113,
        12.222667694091797,
        -0.16742268204689026
      ]
    },
    {
      "children": [
        85
      ],
      "name": "mixamorig:RightArm_051",
      "rotation": [
        -0.11327284574508667,
        0.003490220522508025,
        -0.030599528923630714,
        0.993086576461792
      ],
      "translation": [
        9.722795013544783e-09,
        11.303067207336426,
        -1.007899186333816e-07
      ]
    },
    {
      "children": [
        86
      ],
      "name": "mixamorig:RightForeArm_052",
      "rotation": [
        -0.03565657138824463,
        0.00551306176930666,
        -0.1527007818222046,
        0.9876137375831604
      ],
      "translation": [
        3.635478051933205e-08,
        21.974483489990234,
        -1.6543992842343869e-09
      ]
    },
    {
      "children": [
        87,
        90,
        93,
        96,
        99
      ],
      "name": "mixamorig:RightHand_053",
      "rotation": [
        0.006818950176239014,
        0.2946515381336212,
        0.044028252363204956,
        0.9545655846595764
      ],
      "translation": [
        1.5270136088929576e-07,
        25.20821762084961,
        1.797434379113838e-07
      ]
    },
    {
      "children": [
        88
      ],
      "name": "mixamorig:RightHandThumb1_054",
      "rotation": [
        0.1572447121143341,
        -0.03983445093035698,
        -0.24231839179992676,
        0.9565402865409851
      ],
      "translation": [
        2.2871341705322266,
        4.105424880981445,
        1.5879104137420654
      ]
    },
    {
      "children": [
        89
      ],
      "name": "mixamorig:RightHandThumb2_055",
      "rotation": [
        0.11493735760450363,
        -8.110194293919903e-09,
        2.9026379078089803e-09,
        0.9933727383613586
      ],
      "translation": [
        0.045352403074502945,
        3.968175172805786,
        6.681284503429197e-08
      ]
    },
    {
      "name": "mixamorig:RightHandThumb3_056",
      "rotation": [
        -0.0861569344997406,
        -8.022845499056075e-09,
        3.1360027907822996e-09,
        0.9962815642356873
      ],
      "translation": [
        0.20720694959163666,
        3.6567773818969727,
        8.409509177909058e-08
      ]
    },
    {
      "children": [
        91
      ],
      "name": "mixamorig:RightHandIndex1_057",
      "rotation": [
        0.1190706267952919,
        -0.006837756372988224,
        -0.05692274495959282,
        0.9912291765213013
      ],
      "translation": [
        3.089616060256958,
        11.28418254852295,
        0.12383707612752914
      ]
    },
    {
      "children": [
        92
      ],
      "name": "mixamorig:RightHandIndex2_058",
      "rotation": [
        -0.04036382585763931,
        -1.0140309925077418e-08,
        1.1879717209950513e-09,
        0.9991851449012756
      ],
      "translation": [
        0.004353473428636789,
        2.9919254779815674,
        -5.430894134406117e-08
      ]
    },
    {
      "name": "mixamorig:RightHandIndex3_059",
      "rotation": [
        0.000984711805358529,
        -1.0179225462536579e-08,
        7.877258290100997e-10,
        0.9999995231628418
      ],
      "translation": [
        -0.002576890168711543,
        2.713285207748413,
        6.170347432998824e-08
      ]
    },
    {
      "children": [
        94
      ],
      "name": "mixamorig:RightHandMiddle1_060",
      "rotation": [
        0.08116962760686874,
        0.0024464738089591265,
        0.030026700347661972,
        0.9962449073791504
      ],
      "translation": [
        1.0450304746627808,
        11.474557876586914,
        -0.6090229749679565
      ]
    },
    {
      "children": [
        95
      ],
      "name": "mixamorig:RightHandMiddle2_061",
      "rotation": [
        -0.06180592626333237,
        -1.0458325760964726e-08,
        2.1561875895859117e-10,
        0.9980883002281189
      ],
      "translation": [
        0.0011134202359244227,
        3.089940309524536,
        -5.025270866099163e-09
      ]
    },
    {
      "name": "mixamorig:RightHandMiddle3_062",
      "rotation": [
        0.07900767028331757,
        -1.0453051757508547e-08,
        3.959291228206041e-10,
        0.9968740344047546
      ],
      "translation": [
        -0.0028236741200089455,
        3.0776801109313965,
        2.7442737859928457e-08
      ]
    },
    {
      "children": [
        97
      ],
      "name": "mixamorig:RightHandRing1_063",
      "rotation": [
        0.09033118188381195,
        0.011565756052732468,
        0.1264725923538208,
        0.9877810478210449
      ],
      "translation": [
        -1.1216717958450317,
        11.139887809753418,
        -0.2847764194011688
      ]
    },
    {
      "children": [
        98
      ],
      "name": "mixamorig:RightHandRing2_064",
      "rotation": [
        -0.007491130381822586,
        -1.0321215881958778e-08,
        9.7349461825047e-10,
        0.9999720454216003
      ],
      "translation": [
        -0.0018975312123075128,
        2.934108018875122,
        1.0393284810561454e-07
      ]
    },
    {
      "name": "mixamorig:RightHandRing3_065",
      "rotation": [
        -0.02285871095955372,
        -1.0346004941652609e-08,
        6.598258606160812e-10,
        0.9997388124465942
      ],
      "translation": [
        0.00011525121226441115,
        2.689927577972412,
        1.1635154351097299e-07
      ]
    },
    {
      "children": [
        100
      ],
      "name": "mixamorig:RightHandPinky1_066",
      "rotation": [
        0.07537642121315002,
        0.015418491326272488,
        0.19980968534946442,
        0.9768095016479492
      ],
      "translation": [
        -3.0129740238189697,
        9.565515518188477,
        0.08636391162872314
      ]
    },
    {
      "children": [
        101
      ],
      "name": "mixamorig:RightHandPinky2_067",
      "rotation": [
        -0.00904254149645567,
        -1.1242644148978798e-08,
        7.953084302236846e-10,
        0.9999591112136841
      ],
      "translation": [
        -0.0006500920280814171,
        2.777029037475586,
        8.178136567948968e-08
      ]
    },
    {
      "name": "mixamorig:RightHandPinky3_068",
      "rotation": [
        -0.01735389605164528,
        -1.2036875836340943e-11,
        6.935094165605449e-10,
        0.9998494386672974
      ],
      "translation": [
        0.00038277398562058806,
        2.275897979736328,
        5.967616800717224e-08
      ]
    },
    {
      "name": "mixamorig:RightShoulder_050_0"
    },
    {
      "name": "mixamorig:RightShoulder_050_1"
    },
    {
      "name": "mixamorig:Spine2_04_0"
    },
    {
      "name": "mixamorig:Spine2_04_1"
    },
    {
      "name": "mixamorig:Spine2_04_2"
    },
    {
      "children": [
        108
      ],
      "name": "mixamorig:LeftUpLeg_069",
      "rotation": [
        -5.4781999097031076e-06,
        -0.028232654556632042,
        0.9996013641357422,
        -0.00019396038260310888
      ],
      "translation": [
        9.862375259399414,
        -4.975837707519531,
        -0.19595777988433838
      ]
    },
    {
      "children": [
        109
      ],
      "name": "mixamorig:LeftLeg_070",
      "rotation": [
        0.011323925107717514,
        -3.002591802214738e-05,
        -0.0026513675693422556,
        0.9999324679374695
      ],
      "translation": [
        -1.1048602033270072e-09,
        50.80522537231445,
        -4.825103516736817e-08
      ]
    },
    {
      "children": [
        110
      ],
      "name": "mixamorig:LeftFoot_071",
      "rotation": [
        0.45724430680274963,
        0.011634682305157185,
        -0.005982483271509409,
        0.8892449140548706
      ],
      "translation": [
        -1.3214791039217744e-08,
        50.53165054321289,
        1.0244468739983859e-07
      ]
    },
    {
      "name": "mixamorig:LeftToeBase_072",
      "rotation": [
        0.328285813331604,
        -0.027957161888480186,
        0.009721213020384312,
        0.9441145658493042
      ],
      "translation": [
        -1.3452618574660846e-08,
        18.19733428955078,
        -3.8058405493757164e-07
      ]
    },
    {
      "children": [
        112
      ],
      "name": "mixamorig:RightUpLeg_073",
      "rotation": [
        5.2458358368312474e-06,
        -0.02703152969479561,
        0.9996345639228821,
        0.00019399264419917017
      ],
      "translation": [
        -9.862375259399414,
        -4.975837707519531,
        -0.25879013538360596
      ]
    },
    {
      "children": [
        113
      ],
      "name": "mixamorig:RightLeg_074",
      "rotation": [
        0.008269955404102802,
        2.192327519878745e-05,
        0.002650853479281068,
        0.9999623894691467
      ],
      "translation": [
        -6.708091859763954e-10,
        50.79846954345703,
        3.441188667352435e-09
      ]
    },
    {
      "children": [
        114
      ],
      "name": "mixamorig:RightFoot_075",
      "rotation": [
        0.46806710958480835,
        -0.011056818068027496,
        0.005857070442289114,
        0.8836043477058411
      ],
      "translation": [
        9.496408992504257e-09,
        50.53833770751953,
        1.1995544468845765e-07
      ]
    },
    {
      "name": "mixamorig:RightToeBase_076",
      "rotation": [
        0.3183518648147583,
        0.027767106890678406,
        -0.009329310618340969,
        0.9475199580192566
      ],
      "translation": [
        1.90145392764407e-08,
        18.705839157104492,
        -3.41761136724017e-07
      ]
    },
    {
      "name": "shoes"
    },
    {
      "name": "bot"
    },
    {
      "name": "body2"
    },
    {
      "name": "r_eye",
      "rotation": [
        0.7100973129272461,
        0.08361461758613586,
        -0.10827397555112839,
        0.690686047077179
      ],
      "scale": [
        3.243978261947632,
        3.243978261947632,
        3.2439796924591064
      ],
      "translation": [
        5.293398857116699,
        180.11236572265625,
        5.951034069061279
      ]
    },
    {
      "name": "top2"
    },
    {
      "name": "_face"
    },
    {
      "name": "eyelashes"
    },
    {
      "name": "language"
    },
    {
      "name": "BLEND"
    },
    {
      "name": "_hair1"
    }
  ],
  "samplers": [
    {
      "magFilter": 9729,
      "minFilter": 9987,
      "wrapS": 10497,
      "wrapT": 10497
    }
  ],
  "scene": 0,
  "scenes": [
    {
      "name": "Sketchfab_Scene",
      "nodes": [
        0
      ]
    }
  ],
  "skins": [
    {
      "inverseBindMatrices": 48,
      "joints": [
        5,
        23,
        24,
        25,
        26,
        27,
        28,
        29,
        30,
        31,
        32,
        33,
        34,
        35,
        36,
        37,
        38,
        39,
        40,
        41,
        42,
        43,
        44,
        45,
        46,
        47,
        48,
        49,
        50,
        51,
        52,
        53,
        54,
        55,
        56,
        57,
        58,
        59,
        60,
        61,
        62,
        63,
        64,
        65,
        66,
        67,
        68,
        69,
        70,
        71,
        72,
        73,
        74,
        75,
        76,
        77,
        78,
        79,
        80,
        81,
        82,
        83,
        84,
        85,
        86,
        87,
        88,
        89,
        90,
        91,
        92,
        93,
        94,
        95,
        96,
        97,
        98,
        99,
        100,
        101,
        102,
        103,
        104,
        105,
        106,
        107,
        108,
        109,
        110,
        111,
        112,
        113,
        114
      ],
      "skeleton": 5
    }
  ],
  "textures": [
    {
      "sampler": 0,
      "source": 0
    },
    {
      "sampler": 0,
      "source": 1
    }
  ]
}
